<?xml version="1.0" encoding="UTF-8" standalone="no"?>
<!-- Created with Inkscape (http://www.inkscape.org/) -->

<svg
   xmlns:dc="http://purl.org/dc/elements/1.1/"
   xmlns:cc="http://creativecommons.org/ns#"
   xmlns:rdf="http://www.w3.org/1999/02/22-rdf-syntax-ns#"
   xmlns:svg="http://www.w3.org/2000/svg"
   xmlns="http://www.w3.org/2000/svg"
   xmlns:sodipodi="http://sodipodi.sourceforge.net/DTD/sodipodi-0.dtd"
   xmlns:inkscape="http://www.inkscape.org/namespaces/inkscape"
   width="500"
   height="500"
   viewBox="0 0 500 500.00001"
   id="svg2"
   version="1.1"
   inkscape:version="0.91 r13725"
   sodipodi:docname="b.svg">
  <defs
     id="defs4" />
  <sodipodi:namedview
     id="base"
     pagecolor="#ffffff"
     bordercolor="#666666"
     borderopacity="1.0"
     inkscape:pageopacity="0.0"
     inkscape:pageshadow="2"
     inkscape:zoom="0.70710678"
     inkscape:cx="41.403499"
     inkscape:cy="193.29317"
     inkscape:document-units="px"
     inkscape:current-layer="layer1"
     showgrid="false"
     units="px"
     inkscape:window-width="1280"
     inkscape:window-height="971"
     inkscape:window-x="1912"
     inkscape:window-y="-8"
     inkscape:window-maximized="1"
     fit-margin-top="0"
     fit-margin-left="0"
     fit-margin-right="0"
     fit-margin-bottom="0"
     inkscape:snap-global="false"
     showguides="false" />
  <metadata
     id="metadata7">
    <rdf:RDF>
      <cc:Work
         rdf:about="">
        <dc:format>image/svg+xml</dc:format>
        <dc:type
           rdf:resource="http://purl.org/dc/dcmitype/StillImage" />
        <dc:title />
      </cc:Work>
    </rdf:RDF>
  </metadata>
  <g
     inkscape:label="Layer 1"
     inkscape:groupmode="layer"
     id="layer1"
     transform="translate(48.374149,-642.36218)">
    <path
       style="fill:#683818;fill-opacity:1;fill-rule:evenodd;stroke:#000000;stroke-width:10;stroke-linecap:round;stroke-linejoin:round;stroke-miterlimit:4;stroke-dasharray:none;stroke-opacity:1"
       d="m 217.71995,1432.2759 c 0,0 32.47105,-1.4142 81.68922,-8.4853 C 256.88343,1320.553 255.19069,1101.35 198.51836,1077.3083 l -76.33153,1.4143"
       id="path4293"
       inkscape:connector-curvature="0"
       sodipodi:nodetypes="cccc" />
    <path
       style="fill:#683818;fill-opacity:1;fill-rule:evenodd;stroke:#000000;stroke-width:10;stroke-linecap:round;stroke-linejoin:round;stroke-miterlimit:4;stroke-dasharray:none;stroke-opacity:1"
       d="m 212.06493,1166.4037 c 6.17608,113.1371 36.0455,216.3747 36.0455,216.3747 0,0 -67.1608,33.9411 -208.380103,24.0416 l 8.94763,-230.5168 39.82908,-80.6102"
       id="path4291"
       inkscape:connector-curvature="0"
       sodipodi:nodetypes="ccccc" />
    <path
       style="fill:#683818;fill-rule:evenodd;stroke:#000000;stroke-width:10;stroke-linecap:round;stroke-linejoin:miter;stroke-miterlimit:4;stroke-dasharray:none;stroke-opacity:1;fill-opacity:1"
       d="m 120.89666,1170.6463 c -41.531923,94.7523 1.18261,288.4996 1.18261,288.4996 l -128.953223,12.7279 c 0,0 -31.718,-316.7838 118.361983,-394.5656 l 74.69532,-4.2426"
       id="path4289"
       inkscape:connector-curvature="0"
       sodipodi:nodetypes="cccc" />
    <path
       style="fill:#87cdde;fill-opacity:1;fill-rule:evenodd;stroke:#000000;stroke-width:10;stroke-linecap:round;stroke-linejoin:round;stroke-miterlimit:4;stroke-dasharray:none;stroke-opacity:1"
       d="m 122.18261,1077.3084 c 0,0 46.91147,42.5653 56.84733,41.0122 9.93587,-1.5531 20.93535,-41.0122 20.93535,-41.0122 15.86958,-84.56273 -97.73537,-84.13779 -77.78268,0 z"
       id="path4297"
       inkscape:connector-curvature="0"
       sodipodi:nodetypes="czcc" />
    <path
       style="fill:#87cdde;fill-opacity:1;fill-rule:evenodd;stroke:#000000;stroke-width:10;stroke-linecap:round;stroke-linejoin:round;stroke-miterlimit:4;stroke-dasharray:none;stroke-opacity:1"
       d="m 159.13001,707.35046 c -101.581523,-6.1e-4 -183.929903,77.28297 -183.929693,172.61719 -2.1e-4,95.33422 79.90259,195.24455 233.427173,179.68825 153.52458,-15.5563 227.86215,-127.10306 224.2166,-145.698 -3.64555,-18.59494 -38.19227,-23.69494 -89.93674,-31.16797 0.0583,-0.94035 0.10847,-1.88114 0.15039,-2.82226 2.1e-4,-95.33351 -82.34698,-172.61679 -183.92773,-172.61719 z"
       id="path4251"
       inkscape:connector-curvature="0"
       sodipodi:nodetypes="cszzccsc" />
    <path
       style="fill:#1a1a1a;fill-rule:evenodd;stroke:#000000;stroke-width:10;stroke-linecap:round;stroke-linejoin:round;stroke-miterlimit:4;stroke-dasharray:none;stroke-opacity:1"
       d="m 159.13083,707.35046 c 101.58075,4e-4 183.92795,77.28368 183.92774,172.61719 -0.036,0.8076 -0.0809,1.61483 -0.12891,2.42187 -54.09565,49.88421 -312.513053,72.21705 -355.958533,38.19817 -4.99879,-16.53739 -11.770021,-23.69981 -11.769991,-40.62004 -2.1e-4,-95.33422 82.34817,-172.6178 183.929694,-172.61719 z"
       id="path4148"
       inkscape:connector-curvature="0"
       sodipodi:nodetypes="scccss" />
    <ellipse
       style="opacity:1;fill:#ffffff;fill-opacity:1;stroke:#000000;stroke-width:10;stroke-linecap:round;stroke-linejoin:round;stroke-miterlimit:4;stroke-dasharray:none;stroke-dashoffset:0;stroke-opacity:1"
       id="path4241"
       cx="187.81081"
       cy="862.93188"
       rx="62.935963"
       ry="68.157387"
       transform="matrix(0.99544179,-0.09537108,0.09530498,0.99544812,0,0)" />
    <ellipse
       ry="21.420891"
       rx="17.518257"
       cy="865.47766"
       cx="184.72569"
       id="ellipse4243"
       style="opacity:1;fill:#683818;fill-opacity:1;stroke:#000000;stroke-width:10.00000095;stroke-linecap:round;stroke-linejoin:round;stroke-miterlimit:4;stroke-dasharray:none;stroke-dashoffset:0;stroke-opacity:1"
       transform="matrix(0.99544179,-0.09537108,0.09530498,0.99544812,0,0)" />
    <ellipse
       ry="72.723282"
       rx="67.17514"
       cy="870.26306"
       cx="56.991241"
       id="ellipse4245"
       style="opacity:1;fill:#ffffff;fill-opacity:1;stroke:#000000;stroke-width:10;stroke-linecap:round;stroke-linejoin:round;stroke-miterlimit:4;stroke-dasharray:none;stroke-dashoffset:0;stroke-opacity:1"
       transform="matrix(0.99544496,-0.09533803,0.09533803,0.99544496,0,0)" />
    <ellipse
       style="opacity:1;fill:#683818;fill-opacity:1;stroke:#000000;stroke-width:10.00000095;stroke-linecap:round;stroke-linejoin:round;stroke-miterlimit:4;stroke-dasharray:none;stroke-dashoffset:0;stroke-opacity:1"
       id="ellipse4247"
       cx="58.129353"
       cy="873.21344"
       rx="18.698235"
       ry="22.855886"
       transform="matrix(0.99544496,-0.09533803,0.09533803,0.99544496,0,0)" />
    <path
       style="fill:none;fill-rule:evenodd;stroke:#000000;stroke-width:10;stroke-linecap:round;stroke-linejoin:round;stroke-miterlimit:4;stroke-dasharray:none;stroke-opacity:1"
       d="m 128.59548,1030.5373 c 43.23313,11.441 86.54115,1.6219 86.54115,1.6219"
       id="path4255"
       inkscape:connector-curvature="0"
       sodipodi:nodetypes="cc" />
    <path
       style="fill:#416973;fill-rule:evenodd;stroke:#000000;stroke-width:10;stroke-linecap:round;stroke-linejoin:round;stroke-miterlimit:4;stroke-dasharray:none;stroke-opacity:1;fill-opacity:1"
       d="m 75.048077,780.3235 c -32.52692,114.55131 -9.8995,197.9899 -9.8995,197.9899 l -24.04163,-5.65685 c -19.79899,36.76955 -1.41422,87.68125 -1.41422,87.68125 0,0 -108.89444,-90.50967 -52.3259,-243.24474"
       id="path4283"
       inkscape:connector-curvature="0"
       sodipodi:nodetypes="ccccc" />
    <path
       style="fill:#683818;fill-opacity:1;fill-rule:evenodd;stroke:#000000;stroke-width:10;stroke-linecap:round;stroke-linejoin:round;stroke-miterlimit:4;stroke-dasharray:none;stroke-opacity:1"
       d="M 159.13003,707.35046 C 77.830847,707.34997 8.860337,756.85658 -15.444193,825.49695 34.891687,806.34207 167.86952,762.56073 304.88784,774.69226 271.25714,733.74096 218.48135,707.3507 159.13003,707.35046 Z"
       id="path4270"
       inkscape:connector-curvature="0" />
    <path
       style="fill:#416973;fill-opacity:1;fill-rule:evenodd;stroke:#000000;stroke-width:10;stroke-linecap:round;stroke-linejoin:round;stroke-miterlimit:4;stroke-dasharray:none;stroke-opacity:1"
       d="m 204.97568,770.38321 c 53.30117,-64.25718 114.07711,-56.88944 119.95788,-51.10872 5.88076,5.7807 -41.58967,69.98783 -119.95788,51.10872 z"
       id="path4285"
       inkscape:connector-curvature="0"
       inkscape:transform-center-x="-66.623663"
       inkscape:transform-center-y="-30.160319" />
    <path
       inkscape:transform-center-y="-59.763863"
       inkscape:transform-center-x="-42.998574"
       inkscape:connector-curvature="0"
       id="path4287"
       d="m 201.78153,767.7502 c 13.08437,-82.45483 69.122,-107.10812 77.12846,-105.1342 8.00648,1.97393 -0.0877,81.41248 -77.12846,105.1342 z"
       style="fill:#416973;fill-opacity:1;fill-rule:evenodd;stroke:#000000;stroke-width:10;stroke-linecap:round;stroke-linejoin:round;stroke-miterlimit:4;stroke-dasharray:none;stroke-opacity:1" />
  </g>
</svg>
