<?xml version="1.0" encoding="UTF-8" standalone="no"?>
<!-- Created with Inkscape (http://www.inkscape.org/) -->

<svg
   xmlns:dc="http://purl.org/dc/elements/1.1/"
   xmlns:cc="http://creativecommons.org/ns#"
   xmlns:rdf="http://www.w3.org/1999/02/22-rdf-syntax-ns#"
   xmlns:svg="http://www.w3.org/2000/svg"
   xmlns="http://www.w3.org/2000/svg"
   xmlns:sodipodi="http://sodipodi.sourceforge.net/DTD/sodipodi-0.dtd"
   xmlns:inkscape="http://www.inkscape.org/namespaces/inkscape"
   width="500"
   height="500"
   viewBox="0 0 499.99998 499.99998"
   id="svg2"
   version="1.1"
   inkscape:version="0.91 r13725"
   sodipodi:docname="casey.svg">
  <defs
     id="defs4" />
  <sodipodi:namedview
     id="base"
     pagecolor="#ffffff"
     bordercolor="#666666"
     borderopacity="1.0"
     inkscape:pageopacity="0.0"
     inkscape:pageshadow="2"
     inkscape:zoom="1"
     inkscape:cx="84.392"
     inkscape:cy="266.27417"
     inkscape:document-units="px"
     inkscape:current-layer="layer1"
     showgrid="false"
     units="px"
     inkscape:window-width="1600"
     inkscape:window-height="847"
     inkscape:window-x="-8"
     inkscape:window-y="-8"
     inkscape:window-maximized="1" />
  <metadata
     id="metadata7">
    <rdf:RDF>
      <cc:Work
         rdf:about="">
        <dc:format>image/svg+xml</dc:format>
        <dc:type
           rdf:resource="http://purl.org/dc/dcmitype/StillImage" />
        <dc:title />
      </cc:Work>
    </rdf:RDF>
  </metadata>
  <g
     inkscape:label="Layer 1"
     inkscape:groupmode="layer"
     id="layer1"
     transform="translate(0,-552.36207)">
    <path
       style="fill:#ffdd55;fill-opacity:1;fill-rule:evenodd;stroke:#000000;stroke-width:9.99999905;stroke-linecap:round;stroke-linejoin:round;stroke-miterlimit:4;stroke-dasharray:none;stroke-opacity:1"
       d="M 55.361927,633.12155 253.85239,821.98764 444.82447,617.76129 419.9614,594.77635 254.81006,780.2262 77.652112,616.56236 Z"
       id="path4169"
       inkscape:connector-curvature="0"
       sodipodi:nodetypes="ccccccc" />
    <path
       sodipodi:nodetypes="czzc"
       inkscape:connector-curvature="0"
       id="path4167"
       d="m 314.72334,958.42189 c 60.8631,13.34319 119.22499,27.52032 122.55994,60.04441 3.33497,32.5241 -166.74823,5.8376 -170.08319,-5.8378 -3.33497,-11.6752 4.1687,-53.37266 4.1687,-53.37266"
       style="fill:#333333;fill-opacity:1;fill-rule:evenodd;stroke:#000000;stroke-width:9.99999905;stroke-linecap:round;stroke-linejoin:round;stroke-miterlimit:4;stroke-dasharray:none;stroke-opacity:1" />
    <path
       style="fill:#333333;fill-opacity:1;fill-rule:evenodd;stroke:#000000;stroke-width:9.99999905;stroke-linecap:round;stroke-linejoin:round;stroke-miterlimit:4;stroke-dasharray:none;stroke-opacity:1"
       d="m 198.00162,958.42189 c -60.86311,13.34319 -119.224981,27.52032 -122.559946,60.04441 -3.334964,32.5241 166.748236,5.8376 170.083186,-5.8378 3.33497,-11.6752 -4.1687,-53.37266 -4.1687,-53.37266"
       id="path4165"
       inkscape:connector-curvature="0"
       sodipodi:nodetypes="czzc" />
    <path
       style="opacity:1;fill:#f4eed7;fill-opacity:1;stroke:#000000;stroke-width:9.99999905;stroke-linecap:round;stroke-linejoin:round;stroke-miterlimit:4;stroke-dasharray:none;stroke-dashoffset:0;stroke-opacity:1"
       d="M 256.78037,664.86067 A 162.16267,162.20315 0 0 0 94.617718,827.0638 162.16267,162.20315 0 0 0 256.78037,989.26694 162.16267,162.20315 0 0 0 418.94302,827.0638 162.16267,162.20315 0 0 0 256.78037,664.86067 Z"
       id="path4136"
       inkscape:connector-curvature="0" />
    <path
       style="opacity:1;fill:#ffffff;fill-opacity:1;stroke:#000000;stroke-width:10;stroke-linecap:round;stroke-linejoin:round;stroke-miterlimit:4;stroke-dasharray:none;stroke-dashoffset:0;stroke-opacity:1"
       d="m 320.84485,730.91092 a 66.715842,62.530693 85.416924 0 0 -56.97903,71.51792 66.715842,62.530693 85.416924 0 0 67.67918,61.48404 66.715842,62.530693 85.416924 0 0 56.97903,-71.51793 66.715842,62.530693 85.416924 0 0 -67.67918,-61.48403 z"
       id="path4138"
       inkscape:connector-curvature="0" />
    <path
       id="path4142"
       d="m 324.52304,776.63033 a 20.848706,17.508599 85.405867 0 0 -15.78027,22.18631 20.848706,17.508599 85.405867 0 0 19.12405,19.37682 20.848706,17.508599 85.405867 0 0 15.78026,-22.18631 20.848706,17.508599 85.405867 0 0 -19.12404,-19.37682 z"
       style="opacity:1;fill:#a0892c;fill-opacity:1;stroke:#000000;stroke-width:10;stroke-linecap:round;stroke-linejoin:round;stroke-miterlimit:4;stroke-dasharray:none;stroke-dashoffset:0;stroke-opacity:1"
       inkscape:connector-curvature="0" />
    <path
       id="path4144"
       d="m 195.35561,741.01172 a 66.715842,62.530693 85.416924 0 0 -56.97903,71.51792 66.715842,62.530693 85.416924 0 0 67.67919,61.48403 66.715842,62.530693 85.416924 0 0 56.97902,-71.51793 66.715842,62.530693 85.416924 0 0 -67.67918,-61.48402 z"
       style="opacity:1;fill:#ffffff;fill-opacity:1;stroke:#000000;stroke-width:10;stroke-linecap:round;stroke-linejoin:round;stroke-miterlimit:4;stroke-dasharray:none;stroke-dashoffset:0;stroke-opacity:1"
       inkscape:connector-curvature="0" />
    <path
       inkscape:connector-curvature="0"
       style="opacity:1;fill:#a0892c;fill-opacity:1;stroke:#000000;stroke-width:10;stroke-linecap:round;stroke-linejoin:round;stroke-miterlimit:4;stroke-dasharray:none;stroke-dashoffset:0;stroke-opacity:1"
       d="m 199.03379,786.73113 a 20.848706,17.508599 85.405867 0 0 -15.78026,22.18631 20.848706,17.508599 85.405867 0 0 19.12405,19.37681 20.848706,17.508599 85.405867 0 0 15.78027,-22.18631 20.848706,17.508599 85.405867 0 0 -19.12406,-19.37681 z"
       id="path4146" />
    <path
       style="fill:#ffdd55;fill-rule:evenodd;stroke:#000000;stroke-width:9.99999809;stroke-linecap:round;stroke-linejoin:round;stroke-miterlimit:4;stroke-dasharray:none;stroke-opacity:1"
       d="m 54.95908,598.99866 c 68.2623,-62.27964 152.81621,-17.80176 150.30925,10.03602 -2.50692,27.83778 -24.6755,33.37705 -71.53002,75.53687 -46.854536,42.15983 -47.400463,58.30262 -80.45152,64.41957 -33.051055,6.11696 -66.590005,-87.71284 1.67229,-149.99246 z"
       id="path4153"
       inkscape:connector-curvature="0"
       sodipodi:nodetypes="zzzzz" />
    <path
       sodipodi:nodetypes="zzzzz"
       inkscape:connector-curvature="0"
       id="path4157"
       d="m 443.03644,585.51096 c -72.341,-57.48334 -153.67268,-7.34675 -149.27762,20.25559 4.39504,27.60233 28.19243,30.16425 77.80653,69.03333 49.61411,38.86908 49.95363,56.39101 83.34413,60.24149 33.39052,3.85049 60.46798,-92.04707 -11.87304,-149.53041 z"
       style="fill:#ffdd55;fill-rule:evenodd;stroke:#000000;stroke-width:9.99999809;stroke-linecap:round;stroke-linejoin:round;stroke-miterlimit:4;stroke-dasharray:none;stroke-opacity:1" />
    <path
       style="fill:#333333;fill-rule:evenodd;stroke:#000000;stroke-width:9.99999905;stroke-linecap:round;stroke-linejoin:round;stroke-miterlimit:4;stroke-dasharray:none;stroke-opacity:1"
       d="m 256.3635,659.02302 c 136.73356,0 168.41571,121.75659 168.41571,121.75659 0,0 -46.58603,-66.39466 -95.88023,-66.71593 -49.29419,-0.32128 -70.03428,31.69004 -70.03428,31.69004 0,0 -47.52324,-49.20299 -107.5526,-6.67158 C 91.282754,781.61355 93.783977,844.99367 93.783977,844.99367 86.280307,784.06104 119.62994,659.02302 256.3635,659.02302 Z"
       id="path4159"
       inkscape:connector-curvature="0"
       sodipodi:nodetypes="zczczcz" />
    <path
       style="fill:none;fill-rule:evenodd;stroke:#000000;stroke-width:9.99999905;stroke-linecap:round;stroke-linejoin:round;stroke-miterlimit:4;stroke-dasharray:none;stroke-opacity:1"
       d="m 209.66967,955.74291 c 40.29768,11.67528 79.04546,4.16975 79.04546,4.16975"
       id="path4161"
       inkscape:connector-curvature="0"
       sodipodi:nodetypes="cc" />
  </g>
</svg>
