<?xml version="1.0" encoding="UTF-8" standalone="no"?>
<!-- Created with Inkscape (http://www.inkscape.org/) -->

<svg
   xmlns:dc="http://purl.org/dc/elements/1.1/"
   xmlns:cc="http://creativecommons.org/ns#"
   xmlns:rdf="http://www.w3.org/1999/02/22-rdf-syntax-ns#"
   xmlns:svg="http://www.w3.org/2000/svg"
   xmlns="http://www.w3.org/2000/svg"
   xmlns:sodipodi="http://sodipodi.sourceforge.net/DTD/sodipodi-0.dtd"
   xmlns:inkscape="http://www.inkscape.org/namespaces/inkscape"
   width="500"
   height="500"
   viewBox="0 0 500 500.00001"
   id="svg2"
   version="1.1"
   inkscape:version="0.91 r13725"
   sodipodi:docname="maria.svg">
  <defs
     id="defs4" />
  <sodipodi:namedview
     id="base"
     pagecolor="#ffffff"
     bordercolor="#666666"
     borderopacity="1.0"
     inkscape:pageopacity="0.0"
     inkscape:pageshadow="2"
     inkscape:zoom="0.70710678"
     inkscape:cx="263.19473"
     inkscape:cy="133.13284"
     inkscape:document-units="px"
     inkscape:current-layer="layer1"
     showgrid="false"
     units="px"
     inkscape:window-width="1600"
     inkscape:window-height="847"
     inkscape:window-x="-8"
     inkscape:window-y="-8"
     inkscape:window-maximized="1"
     fit-margin-top="0"
     fit-margin-left="0"
     fit-margin-right="0"
     fit-margin-bottom="0"
     inkscape:snap-global="false" />
  <metadata
     id="metadata7">
    <rdf:RDF>
      <cc:Work
         rdf:about="">
        <dc:format>image/svg+xml</dc:format>
        <dc:type
           rdf:resource="http://purl.org/dc/dcmitype/StillImage" />
        <dc:title />
      </cc:Work>
    </rdf:RDF>
  </metadata>
  <g
     inkscape:label="Layer 1"
     inkscape:groupmode="layer"
     id="layer1"
     transform="translate(48.374149,-642.36218)">
    <path
       sodipodi:nodetypes="csc"
       inkscape:connector-curvature="0"
       id="path4183"
       d="m 327.99119,789.77749 c -44.38289,116.52916 52.70467,267.73971 -6.93484,271.90141 -59.6395,4.1618 -139.46025,-231.60378 -16.64358,-342.65124"
       style="fill:#422b1e;fill-opacity:1;fill-rule:evenodd;stroke:#000000;stroke-width:10;stroke-linecap:round;stroke-linejoin:round;stroke-miterlimit:4;stroke-dasharray:none;stroke-opacity:1" />
    <path
       style="fill:#484537;fill-opacity:1;fill-rule:evenodd;stroke:#000000;stroke-width:10;stroke-linecap:round;stroke-linejoin:round;stroke-miterlimit:4;stroke-dasharray:none;stroke-opacity:1"
       d="m 228.12969,1466.7564 94.31364,-20.8088 c -48.54378,-145.6615 -2.77393,-316.2934 -81.83094,-373.1708 l -83.21793,6.9362 -106.796317,291.323"
       id="path4177"
       inkscape:connector-curvature="0"
       sodipodi:nodetypes="ccccc" />
    <path
       style="fill:#484537;fill-opacity:1;fill-rule:evenodd;stroke:#000000;stroke-width:10;stroke-linecap:round;stroke-linejoin:round;stroke-miterlimit:4;stroke-dasharray:none;stroke-opacity:1"
       d="m 250.32114,1171.2718 c 22.19144,62.4263 1.38696,153.9849 26.35234,238.6073 -74.89612,38.843 -216.366575,36.0685 -216.366575,36.0685"
       id="path4175"
       inkscape:connector-curvature="0" />
    <path
       style="fill:#484537;fill-opacity:1;fill-rule:evenodd;stroke:#000000;stroke-width:10;stroke-linecap:round;stroke-linejoin:round;stroke-miterlimit:4;stroke-dasharray:none;stroke-opacity:1"
       d="m 165.71625,1070.0024 c -203.883885,70.7497 -173.3706477,424.499 -173.3706477,424.499 L 147.68571,1480.6289 c 0,0 -33.28717,-162.3085 -5.54786,-302.4209"
       id="path4173"
       inkscape:connector-curvature="0"
       sodipodi:nodetypes="cccc" />
    <path
       style="fill:#c4c8b7;fill-opacity:1;fill-rule:evenodd;stroke:#000000;stroke-width:10;stroke-linecap:round;stroke-linejoin:round;stroke-miterlimit:4;stroke-dasharray:none;stroke-opacity:1"
       d="m 136.84546,1083.8748 c 22.19146,44.3922 62.06959,75.8422 74.89612,74.9117 12.82653,-0.9305 39.52851,-31.9069 44.38289,-72.1371 -47.85032,-51.3282 -119.27901,-2.7746 -119.27901,-2.7746 z"
       id="path4196"
       inkscape:connector-curvature="0"
       sodipodi:nodetypes="czcc" />
    <path
       style="fill:#cb7c4d;fill-opacity:1;fill-rule:evenodd;stroke:#000000;stroke-width:10;stroke-linecap:round;stroke-linejoin:round;stroke-miterlimit:4;stroke-dasharray:none;stroke-opacity:1"
       d="m 157.39446,1039.4827 c 0,0 -1.63971,38.1885 9.70877,54.1029 11.34847,15.9144 53.04902,21.6739 66.93319,4.9499 13.88418,-16.7239 13.51078,-56.2782 13.51078,-56.2782"
       id="path4179"
       inkscape:connector-curvature="0"
       sodipodi:nodetypes="czzc" />
    <path
       style="opacity:1;fill:#cb7c4d;fill-opacity:1;stroke:#000000;stroke-width:10;stroke-linecap:round;stroke-linejoin:round;stroke-miterlimit:4;stroke-dasharray:none;stroke-dashoffset:0;stroke-opacity:1"
       d="m 210.79211,700.99422 c -99.19693,-1e-5 -179.611961,80.43164 -179.611961,179.64908 0,99.21745 80.415041,179.6491 179.611961,179.6491 99.19694,0 179.61198,-80.43166 179.61198,-179.6491 0,-99.21743 -80.41503,-179.64908 -179.61198,-179.64908 z"
       id="path4148"
       inkscape:connector-curvature="0"
       sodipodi:nodetypes="zzzzz" />
    <ellipse
       style="opacity:1;fill:#ffffff;fill-opacity:0.74901961;stroke:#000000;stroke-width:10;stroke-linecap:round;stroke-linejoin:round;stroke-miterlimit:4;stroke-dasharray:none;stroke-dashoffset:0;stroke-opacity:1"
       id="path4150"
       cx="235.29514"
       cy="876.72345"
       rx="77.670265"
       ry="81.154007"
       transform="matrix(0.99338029,-0.11487207,0.11482524,0.99338571,0,0)" />
    <ellipse
       ry="24.27684"
       rx="22.191504"
       cy="876.72345"
       cx="235.29514"
       id="ellipse4152"
       style="opacity:1;fill:#422b1e;fill-opacity:1;stroke:#000000;stroke-width:9.99999905;stroke-linecap:round;stroke-linejoin:round;stroke-miterlimit:4;stroke-dasharray:none;stroke-dashoffset:0;stroke-opacity:1"
       transform="matrix(0.99338029,-0.11487207,0.11482524,0.99338571,0,0)" />
    <ellipse
       ry="81.154007"
       rx="77.670265"
       cy="876.72345"
       cx="78.567604"
       id="ellipse4158"
       style="opacity:1;fill:#ffffff;fill-opacity:0.74901961;stroke:#000000;stroke-width:10;stroke-linecap:round;stroke-linejoin:round;stroke-miterlimit:4;stroke-dasharray:none;stroke-dashoffset:0;stroke-opacity:1"
       transform="matrix(0.99338029,-0.11487207,0.11482524,0.99338571,0,0)" />
    <ellipse
       style="opacity:1;fill:#422b1e;fill-opacity:1;stroke:#000000;stroke-width:9.99999905;stroke-linecap:round;stroke-linejoin:round;stroke-miterlimit:4;stroke-dasharray:none;stroke-dashoffset:0;stroke-opacity:1"
       id="ellipse4160"
       cx="78.567604"
       cy="876.72345"
       rx="22.191504"
       ry="24.27684"
       transform="matrix(0.99338029,-0.11487207,0.11482524,0.99338571,0,0)" />
    <path
       style="fill:none;fill-rule:evenodd;stroke:#000000;stroke-width:10;stroke-linecap:round;stroke-linejoin:round;stroke-miterlimit:4;stroke-dasharray:none;stroke-opacity:1"
       d="m 283.6083,940.98794 c 0,0 18.03055,27.74504 13.86965,38.84306 -4.16089,11.09802 -20.80447,11.09802 -20.80447,11.09802"
       id="path4162"
       inkscape:connector-curvature="0"
       sodipodi:nodetypes="csc" />
    <path
       style="fill:none;fill-rule:evenodd;stroke:#000000;stroke-width:10;stroke-linecap:round;stroke-linejoin:round;stroke-miterlimit:4;stroke-dasharray:none;stroke-opacity:1"
       d="m 176.62477,1035.9723 c 30.16854,-0.9316 55.85065,0.084 55.85065,0.084"
       id="path4165"
       inkscape:connector-curvature="0" />
    <path
       style="fill:#422b1e;fill-opacity:1;fill-rule:evenodd;stroke:#000000;stroke-width:10;stroke-linecap:round;stroke-linejoin:round;stroke-miterlimit:4;stroke-dasharray:none;stroke-opacity:1"
       d="M 63.080828,734.28743 C 185.8975,623.23996 412.59608,685.73361 422.30484,743.99819 c 9.70876,58.26457 -187.24032,24.97052 -187.24032,24.97052 0,0 -58.25255,36.06856 -148.405273,36.06855 -44.382894,116.52916 52.704663,267.73964 -6.934839,271.90144 -59.639501,4.1617 -139.460254,-231.60381 -16.64358,-342.65127 z"
       id="path4169"
       inkscape:connector-curvature="0"
       sodipodi:nodetypes="zsccsz" />
    <path
       style="fill:#cb7c4d;fill-opacity:1;fill-rule:evenodd;stroke:#000000;stroke-width:10;stroke-linecap:round;stroke-linejoin:round;stroke-miterlimit:4;stroke-dasharray:none;stroke-opacity:1"
       d="m 83.710576,892.43413 c -18.726989,-10.72866 -48.945801,-2.81401 -46.267665,37.96096 2.678125,40.77497 37.063235,45.3793 53.202503,34.17615"
       id="path4181"
       inkscape:connector-curvature="0"
       sodipodi:nodetypes="czc" />
  </g>
</svg>
