<?xml version="1.0" encoding="UTF-8" standalone="no"?>
<!-- Created with Inkscape (http://www.inkscape.org/) -->

<svg
   xmlns:dc="http://purl.org/dc/elements/1.1/"
   xmlns:cc="http://creativecommons.org/ns#"
   xmlns:rdf="http://www.w3.org/1999/02/22-rdf-syntax-ns#"
   xmlns:svg="http://www.w3.org/2000/svg"
   xmlns="http://www.w3.org/2000/svg"
   xmlns:sodipodi="http://sodipodi.sourceforge.net/DTD/sodipodi-0.dtd"
   xmlns:inkscape="http://www.inkscape.org/namespaces/inkscape"
   width="500"
   height="500"
   viewBox="0 0 499.99998 499.99998"
   id="svg2"
   version="1.1"
   inkscape:version="0.91 r13725"
   sodipodi:docname="parker.svg">
  <defs
     id="defs4" />
  <sodipodi:namedview
     id="base"
     pagecolor="#ffffff"
     bordercolor="#666666"
     borderopacity="1.0"
     inkscape:pageopacity="0.0"
     inkscape:pageshadow="2"
     inkscape:zoom="1"
     inkscape:cx="36.5"
     inkscape:cy="266.27417"
     inkscape:document-units="px"
     inkscape:current-layer="layer1"
     showgrid="false"
     units="px"
     inkscape:window-width="1600"
     inkscape:window-height="847"
     inkscape:window-x="-8"
     inkscape:window-y="-8"
     inkscape:window-maximized="1"
     inkscape:snap-global="false" />
  <metadata
     id="metadata7">
    <rdf:RDF>
      <cc:Work
         rdf:about="">
        <dc:format>image/svg+xml</dc:format>
        <dc:type
           rdf:resource="http://purl.org/dc/dcmitype/StillImage" />
        <dc:title />
      </cc:Work>
    </rdf:RDF>
  </metadata>
  <g
     inkscape:label="Layer 1"
     inkscape:groupmode="layer"
     id="layer1"
     transform="translate(0,-552.36207)">
    <path
       style="fill:none;fill-rule:evenodd;stroke:#000000;stroke-width:9.99999905;stroke-linecap:round;stroke-linejoin:round;stroke-miterlimit:4;stroke-dasharray:none;stroke-opacity:1"
       d="m -23.557341,781.63089 c -36.91392,-18.10036 -42.34235,18.9384 -13.34901,33.31794 28.99333,14.37954 35.2238099,-0.9825 6.25604,-14.29039 -28.96777,-13.30789 -54.62645,30.41199 -21.57707,42.93034 33.04938,12.51835 40.99915,-10.30287 6.25604,-14.29038 -34.74311,-3.98752 -22.35436,50.49797 10.35709,46.97705 32.7114399,-3.52092 25.85905,-17.53513 -4.06332,-15.01688 -29.92238,2.51826 -16.6967,52.26658 13.14616,45.97438 29.8428599,-6.29219 29.4850499,-23.27495 -4.06333,-15.01687 -33.54837,8.25807 2.16878,58.47643 28.0675999,42.82829 25.8988001,-15.64816 19.0464101,-29.66237 -9.6812199,-14.89852 -28.72764,14.76385 22.64847,52.38152 41.85391,30.26705 19.20546,-22.11446 -2.38947,-24.49119 -15.12021,-6.28877 -12.7307401,18.20243 21.11581,24.09665 52.41385,-2.04821"
       id="path4163"
       inkscape:connector-curvature="0"
       sodipodi:nodetypes="czzzzzzzzzzzzc" />
    <path
       style="fill:#e6e5d8;fill-opacity:1;fill-rule:evenodd;stroke:#000000;stroke-width:9.99999905;stroke-linecap:round;stroke-linejoin:round;stroke-miterlimit:4;stroke-dasharray:none;stroke-opacity:1"
       d="m -29.252911,778.06309 c 3.34703,27.22318 111.26475,34.66396 116.461373,14.55003 5.19662,-20.11392 34.316168,-60.73632 171.081598,-60.61718 136.76543,0.11914 165.73962,41.518 175.46089,58.31695 9.72125,16.79896 113.71559,17.60855 116.95531,-6.46503 3.23973,-24.07359 -11.09254,-165.80424 -293.8391,-163.8468 -282.746558,1.95744 -289.467091,130.83885 -286.120071,158.06203 z"
       id="path4147"
       inkscape:connector-curvature="0"
       sodipodi:nodetypes="zzzzzzz" />
    <path
       style="fill:#e6e5d8;fill-opacity:1;fill-rule:evenodd;stroke:#000000;stroke-width:9.99999905;stroke-linecap:round;stroke-linejoin:round;stroke-miterlimit:4;stroke-dasharray:none;stroke-opacity:1"
       d="m 59.848829,961.22688 c 29.858123,15.87858 364.399331,16.30735 390.342621,-0.2428 25.9433,-16.55015 -16.05187,-196.68515 -51.11686,-215.9508 -35.065,-19.26565 -247.69314,-18.78665 -281.04245,-1.08024 C 84.682832,761.65946 29.990709,945.3483 59.848829,961.22688 Z"
       id="path4145"
       inkscape:connector-curvature="0"
       sodipodi:nodetypes="zzzzz" />
    <path
       style="opacity:1;fill:#ffffff;fill-opacity:1;stroke:#000000;stroke-width:10;stroke-linecap:round;stroke-linejoin:round;stroke-miterlimit:4;stroke-dasharray:none;stroke-dashoffset:0;stroke-opacity:1"
       d="m 193.02347,747.67111 c -37.27871,-0.19592 -69.62447,23.96103 -69.81455,60.13519 -0.19008,36.17415 29.87618,65.65789 67.1549,65.85378 37.2787,0.19591 67.65315,-28.97027 67.84323,-65.14442 0.19008,-36.17415 -27.90488,-60.64865 -65.18358,-60.84455 z"
       id="path4149"
       inkscape:connector-curvature="0"
       sodipodi:nodetypes="sssss" />
    <path
       style="opacity:1;fill:#484537;fill-opacity:1;stroke:#000000;stroke-width:10;stroke-linecap:round;stroke-linejoin:round;stroke-miterlimit:4;stroke-dasharray:none;stroke-dashoffset:0;stroke-opacity:1"
       d="m 195.90697,787.68496 a 18.029228,20.546925 0.304346 0 0 -18.13709,20.45202 18.029228,20.546925 0.304346 0 0 17.92084,20.64125 18.029228,20.546925 0.304346 0 0 18.1371,-20.45203 18.029228,20.546925 0.304346 0 0 -17.92085,-20.64124 z"
       id="ellipse4151"
       inkscape:connector-curvature="0" />
    <path
       id="path4155"
       d="m 328.01632,749.38047 c -37.2787,-0.19592 -69.62445,23.96104 -69.81454,60.13518 -0.19008,36.17415 29.87619,65.65789 67.15489,65.85379 37.27871,0.19592 67.65317,-28.97027 67.84325,-65.14443 0.19007,-36.17414 -27.90488,-60.64865 -65.1836,-60.84454 z"
       style="opacity:1;fill:#ffffff;fill-opacity:1;stroke:#000000;stroke-width:10;stroke-linecap:round;stroke-linejoin:round;stroke-miterlimit:4;stroke-dasharray:none;stroke-dashoffset:0;stroke-opacity:1"
       inkscape:connector-curvature="0"
       sodipodi:nodetypes="sssss" />
    <path
       id="path4157"
       d="m 320.71811,789.25308 c -9.95713,-0.0513 -18.07739,9.10445 -18.13709,20.45204 -0.0588,11.34758 7.96372,20.58897 17.92085,20.64123 9.95713,0.0513 18.07738,-9.10444 18.13709,-20.45202 0.0588,-11.3476 -7.96372,-20.58899 -17.92085,-20.64125 z"
       style="opacity:1;fill:#484537;fill-opacity:1;stroke:#000000;stroke-width:10;stroke-linecap:round;stroke-linejoin:round;stroke-miterlimit:4;stroke-dasharray:none;stroke-dashoffset:0;stroke-opacity:1"
       inkscape:connector-curvature="0"
       sodipodi:nodetypes="sssss" />
    <path
       style="fill:none;fill-rule:evenodd;stroke:#000000;stroke-width:9.99999905;stroke-linecap:round;stroke-linejoin:round;stroke-miterlimit:4;stroke-dasharray:none;stroke-opacity:1"
       d="m 209.67012,944.89314 c 44.97037,-1.89606 91.41385,0.21121 91.41385,0.21121"
       id="path4159"
       inkscape:connector-curvature="0" />
    <path
       style="fill:#484537;fill-rule:evenodd;stroke:#000000;stroke-width:9.99999905;stroke-linecap:round;stroke-linejoin:round;stroke-miterlimit:4;stroke-dasharray:none;stroke-opacity:1"
       d="M 400.90508,742.99427 C 368.53276,725.0873 139.18826,725.50331 111.4358,742.09158 c -27.752491,16.58827 -44.173321,81.94867 -44.173321,81.94867 0,0 39.828761,-65.85358 67.791881,-72.44407 27.96311,-6.59049 50.77174,8.9325 50.77174,8.9325 0,0 10.04671,-12.21434 32.51831,-12.68779 22.4716,-0.47346 32.06648,10.32682 32.06648,10.32682 0,0 22.23988,-11.47101 41.90254,-11.88529 19.66265,-0.41427 42.40809,12.10939 42.40809,12.10939 0,0 26.94254,-10.56988 52.3916,-3.10429 25.44905,7.46559 61.3777,67.72214 61.3777,67.72214 0,0 -15.2134,-62.10842 -47.58574,-80.01539 z"
       id="path4161"
       inkscape:connector-curvature="0"
       sodipodi:nodetypes="zzczczczczcz" />
  </g>
</svg>
