<?xml version="1.0" encoding="UTF-8" standalone="no"?>
<!-- Created with Inkscape (http://www.inkscape.org/) -->

<svg
   xmlns:dc="http://purl.org/dc/elements/1.1/"
   xmlns:cc="http://creativecommons.org/ns#"
   xmlns:rdf="http://www.w3.org/1999/02/22-rdf-syntax-ns#"
   xmlns:svg="http://www.w3.org/2000/svg"
   xmlns="http://www.w3.org/2000/svg"
   xmlns:sodipodi="http://sodipodi.sourceforge.net/DTD/sodipodi-0.dtd"
   xmlns:inkscape="http://www.inkscape.org/namespaces/inkscape"
   width="500"
   height="500"
   viewBox="0 0 500 500.00001"
   id="svg2"
   version="1.1"
   inkscape:version="0.91 r13725"
   sodipodi:docname="rory.svg">
  <defs
     id="defs4">
    <clipPath
       clipPathUnits="userSpaceOnUse"
       id="clipPath4225">
      <path
         sodipodi:nodetypes="zzzzz"
         inkscape:connector-curvature="0"
         id="path4227"
         d="m 235.71844,1002.4084 c -43.39625,2.6279 -74.77009,-5.3803 -81.68035,6.7577 -6.91026,12.138 3.82804,34.2032 83.46319,31.0478 79.63515,-3.1554 90.8321,-27.4764 79.12759,-39.865 -11.70451,-12.38868 -37.51416,-0.56805 -80.91043,2.0595 z"
         style="fill:#ffffff;fill-rule:evenodd;stroke:#000000;stroke-width:9.99999905;stroke-linecap:round;stroke-linejoin:round;stroke-miterlimit:4;stroke-dasharray:none;stroke-opacity:1" />
    </clipPath>
  </defs>
  <sodipodi:namedview
     id="base"
     pagecolor="#ffffff"
     bordercolor="#666666"
     borderopacity="1.0"
     inkscape:pageopacity="0.0"
     inkscape:pageshadow="2"
     inkscape:zoom="0.70710678"
     inkscape:cx="28.208769"
     inkscape:cy="160.58306"
     inkscape:document-units="px"
     inkscape:current-layer="layer1"
     showgrid="false"
     units="px"
     inkscape:window-width="1920"
     inkscape:window-height="1017"
     inkscape:window-x="-8"
     inkscape:window-y="-8"
     inkscape:window-maximized="1"
     fit-margin-top="0"
     fit-margin-left="0"
     fit-margin-right="0"
     fit-margin-bottom="0"
     inkscape:snap-global="false" />
  <metadata
     id="metadata7">
    <rdf:RDF>
      <cc:Work
         rdf:about="">
        <dc:format>image/svg+xml</dc:format>
        <dc:type
           rdf:resource="http://purl.org/dc/dcmitype/StillImage" />
        <dc:title />
      </cc:Work>
    </rdf:RDF>
  </metadata>
  <g
     inkscape:label="Layer 1"
     inkscape:groupmode="layer"
     id="layer1"
     transform="translate(48.374149,-642.36218)">
    <path
       style="fill:#e9c6af;fill-opacity:1;fill-rule:evenodd;stroke:#000000;stroke-width:10;stroke-linecap:round;stroke-linejoin:round;stroke-miterlimit:4;stroke-dasharray:none;stroke-opacity:1"
       d="m 43.2642,695.69499 c 28.48507,0.45545 73.28842,36.11404 80.02389,60.73906 -20.95942,3.13952 -34.95724,13.5906 -42.94438,21.6735 -21.60982,-35.79888 -73.8903,-36.6565 -57.49054,-70.80644 4.0195,-8.36998 11.39815,-11.75023 20.41103,-11.60612 z"
       id="path4186"
       inkscape:connector-curvature="0" />
    <path
       style="fill:#78543c;fill-opacity:1;fill-rule:evenodd;stroke:#000000;stroke-width:10;stroke-linecap:round;stroke-linejoin:round;stroke-miterlimit:4;stroke-dasharray:none;stroke-opacity:1"
       d="m 410.29903,885.83028 c 0,0 -14.58781,235.18422 -142.77162,235.18422 -128.18381,0 -136.66909,-249.79172 -136.66909,-249.79172"
       id="path4188"
       inkscape:connector-curvature="0"
       sodipodi:nodetypes="csc" />
    <path
       style="fill:#483e37;fill-opacity:1;fill-rule:evenodd;stroke:#000000;stroke-width:10;stroke-linecap:round;stroke-linejoin:round;stroke-miterlimit:4;stroke-dasharray:none;stroke-opacity:1"
       d="m 235.67656,1438.6593 c -74.87727,15.1493 -144.20808,-10e-5 -144.20808,-10e-5 0,0 -19.41263,-351.1882 110.9293,-386.9956 l 81.81036,1.3773 52.69144,27.5442"
       id="path4174"
       inkscape:connector-curvature="0"
       sodipodi:nodetypes="ccccc" />
    <path
       style="fill:#917c6f;fill-opacity:1;fill-rule:evenodd;stroke:#000000;stroke-width:10;stroke-linecap:round;stroke-linejoin:round;stroke-miterlimit:4;stroke-dasharray:none;stroke-opacity:1"
       d="m 181.71393,1056.9665 c -61.98765,122.7857 -25.58656,227.5195 -25.58656,259.1953 0,31.6758 -13.31616,95.0274 -13.31616,95.0274 0,0 87.29483,31.6757 267.80278,8.2632 l -63.42557,-344.7091 c 0,0 -58.99012,-55.4177 -165.47449,-17.7768 z"
       id="path4172"
       inkscape:connector-curvature="0"
       sodipodi:nodetypes="cscccc" />
    <path
       style="fill:#483e37;fill-opacity:1;fill-rule:evenodd;stroke:#000000;stroke-width:10;stroke-linecap:round;stroke-linejoin:round;stroke-miterlimit:4;stroke-dasharray:none;stroke-opacity:1"
       d="m 329.47517,1060.26 c 160.53659,87.3192 143.34624,407.4317 143.34624,407.4317 0,0 -81.37652,9.6404 -177.54879,-11.0177 18.52921,-75.7158 27.58299,-202.3421 4.11194,-273.8054 -23.47105,-71.4633 30.09061,-122.6086 30.09061,-122.6086 z"
       id="path4170"
       inkscape:connector-curvature="0"
       sodipodi:nodetypes="ccczc" />
    <path
       style="fill:#e9c6af;fill-opacity:1;fill-rule:evenodd;stroke:#000000;stroke-width:10;stroke-linecap:round;stroke-linejoin:round;stroke-miterlimit:4;stroke-dasharray:none;stroke-opacity:1"
       d="m 309.20905,1011.7247 c 0,0 -1.23366,25.7456 -5.08414,41.3162 -3.94763,15.9634 -57.62042,57.8428 -70.33079,57.8428 -12.71036,0 -36.90166,-32.0942 -40.88505,-48.2022 -4.54724,-18.3881 0.63569,-44.0707 0.63569,-44.0707"
       id="path4178"
       inkscape:connector-curvature="0"
       sodipodi:nodetypes="csssc" />
    <path
       style="fill:#e9c6af;fill-opacity:1;fill-rule:evenodd;stroke:#000000;stroke-width:10;stroke-linecap:round;stroke-linejoin:round;stroke-miterlimit:4;stroke-dasharray:none;stroke-opacity:1"
       d="m 241.73823,681.194 c -115.05408,-1.5e-4 -166.71256,69.79633 -177.63081,134.96666 -10.91825,65.17032 -98.74731,49.58712 -95.01139,66.10715 17.88577,79.08984 124.77506,155.62419 261.08463,155.62409 136.30957,-2e-4 194.69559,-72.36692 194.6959,-173.5278 7.5e-4,-101.16162 -68.08423,-183.16995 -183.13833,-183.1701 z"
       id="path4165"
       inkscape:connector-curvature="0"
       sodipodi:nodetypes="zzszsz" />
    <path
       style="fill:#78543c;fill-opacity:1;fill-rule:evenodd;stroke:#000000;stroke-width:10;stroke-linecap:round;stroke-linejoin:round;stroke-miterlimit:4;stroke-dasharray:none;stroke-opacity:1"
       d="m 285.29469,770.71319 c 159.73013,15.14929 73.49318,300.91171 73.49318,300.91171 C 503.74424,910.58986 427.66542,695.3785 261.93491,677.84949 96.20439,660.32049 72.09844,788.26245 72.09844,788.26245 c 0,0 28.74599,-48.93847 97.52962,-27.18973 l 43.92304,77.03972 z"
       id="path4180"
       inkscape:connector-curvature="0"
       sodipodi:nodetypes="cczcccc" />
    <path
       style="fill:#e9c6af;fill-opacity:1;fill-rule:evenodd;stroke:#000000;stroke-width:10;stroke-linecap:round;stroke-linejoin:round;stroke-miterlimit:4;stroke-dasharray:none;stroke-opacity:1"
       d="m 431.42415,730.70947 c -33.62448,0.1033 -74.64774,14.71782 -108.13302,51.03877 l 1.60885,2.07891 c 19.92646,10.49755 33.55089,27.39899 42.54311,47.90804 79.3648,-29.95061 130.10199,-14.76656 128.18844,-60.69912 -1.0041,-24.10238 -28.41357,-40.43656 -64.20738,-40.3266 z"
       id="path4182"
       inkscape:connector-curvature="0" />
    <ellipse
       style="opacity:1;fill:#ffffff;fill-opacity:1;stroke:#000000;stroke-width:10;stroke-linecap:round;stroke-linejoin:round;stroke-miterlimit:4;stroke-dasharray:none;stroke-dashoffset:0;stroke-opacity:1"
       id="path4150"
       cx="232.13124"
       cy="807.77625"
       rx="66.783844"
       ry="70.926117"
       transform="matrix(0.99451685,0.10457647,-0.10454271,0.9945204,0,0)" />
    <ellipse
       ry="22.723904"
       rx="18.472128"
       cy="807.77625"
       cx="232.13124"
       id="ellipse4152"
       style="opacity:1;fill:#78543c;fill-opacity:1;stroke:#000000;stroke-width:9.99999905;stroke-linecap:round;stroke-linejoin:round;stroke-miterlimit:4;stroke-dasharray:none;stroke-dashoffset:0;stroke-opacity:1"
       transform="matrix(0.99451685,0.10457647,-0.10454271,0.9945204,0,0)" />
    <ellipse
       ry="70.926117"
       rx="66.783844"
       cy="807.77625"
       cx="368.45291"
       id="ellipse4160"
       style="opacity:1;fill:#ffffff;fill-opacity:1;stroke:#000000;stroke-width:10;stroke-linecap:round;stroke-linejoin:round;stroke-miterlimit:4;stroke-dasharray:none;stroke-dashoffset:0;stroke-opacity:1"
       transform="matrix(0.99451685,0.10457647,-0.10454271,0.9945204,0,0)" />
    <ellipse
       style="opacity:1;fill:#78543c;fill-opacity:1;stroke:#000000;stroke-width:9.99999905;stroke-linecap:round;stroke-linejoin:round;stroke-miterlimit:4;stroke-dasharray:none;stroke-dashoffset:0;stroke-opacity:1"
       id="ellipse4163"
       cx="368.45291"
       cy="807.77625"
       rx="18.472128"
       ry="22.723904"
       transform="matrix(0.99451685,0.10457647,-0.10454271,0.9945204,0,0)" />
    <path
       style="fill:none;fill-rule:evenodd;stroke:#000000;stroke-width:10;stroke-linecap:round;stroke-linejoin:round;stroke-miterlimit:4;stroke-dasharray:none;stroke-opacity:1"
       d="m 205.67991,1006.9198 c 57.4468,3.8953 100.28848,-7.7907 100.28848,-7.7907"
       id="path4229"
       inkscape:connector-curvature="0" />
  </g>
</svg>
