<?xml version="1.0" encoding="UTF-8" standalone="no"?>
<!-- Created with Inkscape (http://www.inkscape.org/) -->

<svg
   xmlns:dc="http://purl.org/dc/elements/1.1/"
   xmlns:cc="http://creativecommons.org/ns#"
   xmlns:rdf="http://www.w3.org/1999/02/22-rdf-syntax-ns#"
   xmlns:svg="http://www.w3.org/2000/svg"
   xmlns="http://www.w3.org/2000/svg"
   xmlns:sodipodi="http://sodipodi.sourceforge.net/DTD/sodipodi-0.dtd"
   xmlns:inkscape="http://www.inkscape.org/namespaces/inkscape"
   width="500"
   height="500"
   viewBox="0 0 500 500.00001"
   id="svg2"
   version="1.1"
   inkscape:version="0.91 r13725"
   sodipodi:docname="rory.svg">
  <defs
     id="defs4">
    <clipPath
       clipPathUnits="userSpaceOnUse"
       id="clipPath4225">
      <path
         sodipodi:nodetypes="zzzzz"
         inkscape:connector-curvature="0"
         id="path4227"
         d="m 235.71844,1002.4084 c -43.39625,2.6279 -74.77009,-5.3803 -81.68035,6.7577 -6.91026,12.138 3.82804,34.2032 83.46319,31.0478 79.63515,-3.1554 90.8321,-27.4764 79.12759,-39.865 -11.70451,-12.38868 -37.51416,-0.56805 -80.91043,2.0595 z"
         style="fill:#ffffff;fill-rule:evenodd;stroke:#000000;stroke-width:9.99999905;stroke-linecap:round;stroke-linejoin:round;stroke-miterlimit:4;stroke-dasharray:none;stroke-opacity:1" />
    </clipPath>
  </defs>
  <sodipodi:namedview
     id="base"
     pagecolor="#ffffff"
     bordercolor="#666666"
     borderopacity="1.0"
     inkscape:pageopacity="0.0"
     inkscape:pageshadow="2"
     inkscape:zoom="0.70710678"
     inkscape:cx="236.80527"
     inkscape:cy="160.58306"
     inkscape:document-units="px"
     inkscape:current-layer="layer1"
     showgrid="false"
     units="px"
     inkscape:window-width="1600"
     inkscape:window-height="847"
     inkscape:window-x="-8"
     inkscape:window-y="-8"
     inkscape:window-maximized="1"
     fit-margin-top="0"
     fit-margin-left="0"
     fit-margin-right="0"
     fit-margin-bottom="0"
     inkscape:snap-global="false" />
  <metadata
     id="metadata7">
    <rdf:RDF>
      <cc:Work
         rdf:about="">
        <dc:format>image/svg+xml</dc:format>
        <dc:type
           rdf:resource="http://purl.org/dc/dcmitype/StillImage" />
        <dc:title />
      </cc:Work>
    </rdf:RDF>
  </metadata>
  <g
     inkscape:label="Layer 1"
     inkscape:groupmode="layer"
     id="layer1"
     transform="translate(48.374149,-642.36218)">
    <path
       style="fill:#e9c6af;fill-opacity:1;fill-rule:evenodd;stroke:#000000;stroke-width:10;stroke-linecap:round;stroke-linejoin:round;stroke-miterlimit:4;stroke-dasharray:none;stroke-opacity:1"
       d="m 366.26558,695.69499 c -28.48507,0.45545 -73.28842,36.11404 -80.02389,60.73906 20.95942,3.13952 34.95724,13.5906 42.94438,21.6735 21.60982,-35.79888 73.8903,-36.6565 57.49054,-70.80644 -4.0195,-8.36998 -11.39815,-11.75023 -20.41103,-11.60612 z"
       id="path4186"
       inkscape:connector-curvature="0" />
    <path
       style="fill:#78543c;fill-opacity:1;fill-rule:evenodd;stroke:#000000;stroke-width:10;stroke-linecap:round;stroke-linejoin:round;stroke-miterlimit:4;stroke-dasharray:none;stroke-opacity:1"
       d="m -0.76924945,885.83028 c 0,0 14.58780845,235.18422 142.77161945,235.18422 128.18381,0 136.66909,-249.79172 136.66909,-249.79172"
       id="path4188"
       inkscape:connector-curvature="0"
       sodipodi:nodetypes="csc" />
    <path
       style="fill:#483e37;fill-opacity:1;fill-rule:evenodd;stroke:#000000;stroke-width:10;stroke-linecap:round;stroke-linejoin:round;stroke-miterlimit:4;stroke-dasharray:none;stroke-opacity:1"
       d="m 173.85322,1438.6593 c 74.87727,15.1493 144.20808,-10e-5 144.20808,-10e-5 0,0 19.41263,-351.1882 -110.9293,-386.9956 l -81.81036,1.3773 -52.691435,27.5442"
       id="path4174"
       inkscape:connector-curvature="0"
       sodipodi:nodetypes="ccccc" />
    <path
       style="fill:#917c6f;fill-opacity:1;fill-rule:evenodd;stroke:#000000;stroke-width:10;stroke-linecap:round;stroke-linejoin:round;stroke-miterlimit:4;stroke-dasharray:none;stroke-opacity:1"
       d="m 227.81585,1056.9665 c 61.98765,122.7857 25.58656,227.5195 25.58656,259.1953 0,31.6758 13.31616,95.0274 13.31616,95.0274 0,0 -87.29483,31.6757 -267.8027839,8.2632 L 62.341356,1074.7433 c 0,0 58.990124,-55.4177 165.474494,-17.7768 z"
       id="path4172"
       inkscape:connector-curvature="0"
       sodipodi:nodetypes="cscccc" />
    <path
       style="fill:#483e37;fill-opacity:1;fill-rule:evenodd;stroke:#000000;stroke-width:10;stroke-linecap:round;stroke-linejoin:round;stroke-miterlimit:4;stroke-dasharray:none;stroke-opacity:1"
       d="m 80.054606,1060.26 c -160.53659,87.3192 -143.34624,407.4317 -143.34624,407.4317 0,0 81.376523,9.6404 177.548794,-11.0177 C 95.727949,1380.9582 86.674175,1254.3319 110.14522,1182.8686 133.61627,1111.4053 80.054606,1060.26 80.054606,1060.26 Z"
       id="path4170"
       inkscape:connector-curvature="0"
       sodipodi:nodetypes="ccczc" />
    <path
       style="fill:#e9c6af;fill-opacity:1;fill-rule:evenodd;stroke:#000000;stroke-width:10;stroke-linecap:round;stroke-linejoin:round;stroke-miterlimit:4;stroke-dasharray:none;stroke-opacity:1"
       d="m 100.32073,1011.7247 c 0,0 1.23366,25.7456 5.08414,41.3162 3.94763,15.9634 57.62042,57.8428 70.33079,57.8428 12.71036,0 36.90166,-32.0942 40.88505,-48.2022 4.54724,-18.3881 -0.63569,-44.0707 -0.63569,-44.0707"
       id="path4178"
       inkscape:connector-curvature="0"
       sodipodi:nodetypes="csssc" />
    <path
       style="fill:#e9c6af;fill-opacity:1;fill-rule:evenodd;stroke:#000000;stroke-width:10;stroke-linecap:round;stroke-linejoin:round;stroke-miterlimit:4;stroke-dasharray:none;stroke-opacity:1"
       d="m 167.79155,681.194 c 115.05408,-1.5e-4 166.71256,69.79633 177.63081,134.96666 10.91825,65.17032 98.74731,49.58712 95.01139,66.10715 C 422.54798,961.35765 315.65869,1037.892 179.34912,1037.8919 43.039546,1037.8917 -15.346473,965.52498 -15.346775,864.3641 -15.347525,763.20248 52.737449,681.19415 167.79155,681.194 Z"
       id="path4165"
       inkscape:connector-curvature="0"
       sodipodi:nodetypes="zzszsz" />
    <path
       style="fill:#78543c;fill-rule:evenodd;stroke:#000000;stroke-width:10;stroke-linecap:round;stroke-linejoin:round;stroke-miterlimit:4;stroke-dasharray:none;stroke-opacity:1;fill-opacity:1"
       d="M 124.23509,770.71319 C -35.495044,785.86248 50.741907,1071.6249 50.741907,1071.6249 -94.214463,910.58986 -18.135643,695.3785 147.59487,677.84949 c 165.73052,-17.529 189.83647,110.41296 189.83647,110.41296 0,0 -28.74599,-48.93847 -97.52962,-27.18973 l -43.92304,77.03972 z"
       id="path4180"
       inkscape:connector-curvature="0"
       sodipodi:nodetypes="cczcccc" />
    <path
       style="fill:#e9c6af;fill-opacity:1;fill-rule:evenodd;stroke:#000000;stroke-width:10;stroke-linecap:round;stroke-linejoin:round;stroke-miterlimit:4;stroke-dasharray:none;stroke-opacity:1"
       d="m -21.894373,730.70947 c 33.62448,0.1033 74.647741,14.71782 108.133025,51.03877 l -1.608851,2.07891 C 64.703336,794.3247 51.078914,811.22614 42.086692,831.73519 -37.27811,801.78458 -88.0153,816.96863 -86.101747,771.03607 c 1.0041,-24.10238 28.413566,-40.43656 64.207374,-40.3266 z"
       id="path4182"
       inkscape:connector-curvature="0" />
    <ellipse
       style="opacity:1;fill:#ffffff;fill-opacity:1;stroke:#000000;stroke-width:10;stroke-linecap:round;stroke-linejoin:round;stroke-miterlimit:4;stroke-dasharray:none;stroke-dashoffset:0;stroke-opacity:1"
       id="path4150"
       cx="-175.15446"
       cy="850.60339"
       rx="66.783844"
       ry="70.926117"
       transform="matrix(-0.99451685,0.10457647,0.10454271,0.9945204,0,0)" />
    <ellipse
       ry="22.723904"
       rx="18.472128"
       cy="850.60339"
       cx="-175.15446"
       id="ellipse4152"
       style="opacity:1;fill:#78543c;fill-opacity:1;stroke:#000000;stroke-width:9.99999905;stroke-linecap:round;stroke-linejoin:round;stroke-miterlimit:4;stroke-dasharray:none;stroke-dashoffset:0;stroke-opacity:1"
       transform="matrix(-0.99451685,0.10457647,0.10454271,0.9945204,0,0)" />
    <ellipse
       ry="70.926117"
       rx="66.783844"
       cy="850.60339"
       cx="-38.832829"
       id="ellipse4160"
       style="opacity:1;fill:#ffffff;fill-opacity:1;stroke:#000000;stroke-width:10;stroke-linecap:round;stroke-linejoin:round;stroke-miterlimit:4;stroke-dasharray:none;stroke-dashoffset:0;stroke-opacity:1"
       transform="matrix(-0.99451685,0.10457647,0.10454271,0.9945204,0,0)" />
    <ellipse
       style="opacity:1;fill:#78543c;fill-opacity:1;stroke:#000000;stroke-width:9.99999905;stroke-linecap:round;stroke-linejoin:round;stroke-miterlimit:4;stroke-dasharray:none;stroke-dashoffset:0;stroke-opacity:1"
       id="ellipse4163"
       cx="-38.832829"
       cy="850.60339"
       rx="18.472128"
       ry="22.723904"
       transform="matrix(-0.99451685,0.10457647,0.10454271,0.9945204,0,0)" />
    <path
       style="fill:none;fill-rule:evenodd;stroke:#000000;stroke-width:10;stroke-linecap:round;stroke-linejoin:round;stroke-miterlimit:4;stroke-dasharray:none;stroke-opacity:1"
       d="m 203.84987,1006.9198 c -57.4468,3.8953 -100.28848,-7.7907 -100.28848,-7.7907"
       id="path4229"
       inkscape:connector-curvature="0" />
  </g>
</svg>
