<?xml version="1.0" encoding="UTF-8" standalone="no"?>
<!-- Created with Inkscape (http://www.inkscape.org/) -->

<svg
   xmlns:dc="http://purl.org/dc/elements/1.1/"
   xmlns:cc="http://creativecommons.org/ns#"
   xmlns:rdf="http://www.w3.org/1999/02/22-rdf-syntax-ns#"
   xmlns:svg="http://www.w3.org/2000/svg"
   xmlns="http://www.w3.org/2000/svg"
   xmlns:sodipodi="http://sodipodi.sourceforge.net/DTD/sodipodi-0.dtd"
   xmlns:inkscape="http://www.inkscape.org/namespaces/inkscape"
   width="500"
   height="700"
   viewBox="0 0 500 700.00001"
   id="svg2"
   version="1.1"
   inkscape:version="0.91 r13725"
   sodipodi:docname="robert.svg">
  <defs
     id="defs4" />
  <sodipodi:namedview
     id="base"
     pagecolor="#ffffff"
     bordercolor="#666666"
     borderopacity="1.0"
     inkscape:pageopacity="0.0"
     inkscape:pageshadow="2"
     inkscape:zoom="0.70710678"
     inkscape:cx="18.308449"
     inkscape:cy="427.5551"
     inkscape:document-units="px"
     inkscape:current-layer="layer1"
     showgrid="false"
     units="px"
     inkscape:window-width="1920"
     inkscape:window-height="1017"
     inkscape:window-x="-8"
     inkscape:window-y="-8"
     inkscape:window-maximized="1"
     fit-margin-top="0"
     fit-margin-left="0"
     fit-margin-right="0"
     fit-margin-bottom="0"
     inkscape:snap-global="false" />
  <metadata
     id="metadata7">
    <rdf:RDF>
      <cc:Work
         rdf:about="">
        <dc:format>image/svg+xml</dc:format>
        <dc:type
           rdf:resource="http://purl.org/dc/dcmitype/StillImage" />
        <dc:title />
      </cc:Work>
    </rdf:RDF>
  </metadata>
  <g
     inkscape:label="Layer 1"
     inkscape:groupmode="layer"
     id="layer1"
     transform="translate(48.374149,-442.36218)">
    <path
       style="fill:#b3b3b3;fill-opacity:1;fill-rule:evenodd;stroke:#000000;stroke-width:10;stroke-linecap:round;stroke-linejoin:round;stroke-miterlimit:4;stroke-dasharray:none;stroke-opacity:1"
       d="m 66.107149,1228.9273 c 26.10598,-138.5967 17.66919,-323.63417 91.154391,-372.18557 73.48522,-48.5515 101.16032,-1.0327 101.16032,-1.0327 l 60.8126,132.1197"
       id="path4222"
       inkscape:connector-curvature="0"
       sodipodi:nodetypes="czcc" />
    <path
       style="fill:#f6d5be;fill-opacity:1;fill-rule:evenodd;stroke:#000000;stroke-width:10;stroke-linecap:round;stroke-linejoin:round;stroke-miterlimit:4;stroke-dasharray:none;stroke-opacity:1"
       d="m 254.44931,810.44913 -4.31376,44.4044 c 0,0 -26.74522,15.4899 -47.45121,14.4573 -20.70598,-1.0327 -34.50996,-15.4899 -34.50996,-15.4899 l -2.58825,-38.2085"
       id="path4224"
       inkscape:connector-curvature="0"
       sodipodi:nodetypes="ccscc" />
    <path
       style="fill:#b3b3b3;fill-opacity:1;fill-rule:evenodd;stroke:#000000;stroke-width:10;stroke-linecap:round;stroke-linejoin:round;stroke-miterlimit:4;stroke-dasharray:none;stroke-opacity:1"
       d="M 134.71284,945.72773 C 128.51485,1065.5163 111.9869,1185.305 111.9869,1185.305 c 0,0 72.3098,19.6205 236.55636,15.4899 L 291.72841,919.91123"
       id="path4220"
       inkscape:connector-curvature="0"
       sodipodi:nodetypes="cccc" />
    <path
       sodipodi:nodetypes="ccc"
       inkscape:connector-curvature="0"
       id="path4216"
       d="m 102.26766,727.3921 c -0.50817,56.29633 -5.462151,117.04023 -5.462151,117.04023 -51.2769,-40.0847 -120.26114,-255.87523 23.151821,-348.5546"
       style="fill:#301f10;fill-opacity:1;fill-rule:evenodd;stroke:#000000;stroke-width:10;stroke-linecap:round;stroke-linejoin:round;stroke-miterlimit:4;stroke-dasharray:none;stroke-opacity:1" />
    <path
       style="opacity:1;fill:#f6d5be;fill-opacity:1;stroke:#000000;stroke-width:10;stroke-linecap:round;stroke-linejoin:round;stroke-miterlimit:4;stroke-dasharray:none;stroke-dashoffset:0;stroke-opacity:1"
       d="m 200.91296,474.02467 c -102.512421,0 -185.615241,80.53304 -185.615241,179.87577 0,99.34274 70.3749,179.87579 185.615241,179.87579 115.24034,0 185.61523,-80.53305 185.61523,-179.87579 0,-99.34273 -83.10281,-179.87577 -185.61523,-179.87577 z"
       id="path4200"
       inkscape:connector-curvature="0"
       sodipodi:nodetypes="zzzzz" />
    <path
       style="opacity:1;fill:#ffffff;fill-opacity:1;stroke:#000000;stroke-width:10;stroke-linecap:round;stroke-linejoin:round;stroke-miterlimit:4;stroke-dasharray:none;stroke-dashoffset:0;stroke-opacity:1"
       d="m 101.03192,564.43803 c -35.082649,-1.16448 -65.384829,23.65493 -69.400469,60.61204 -4.2249,38.88918 19.18689,69.26509 55.89654,73.25189 36.710339,3.98637 72.817379,-19.92707 77.043339,-58.81683 4.22603,-38.88993 -22.10782,-70.72754 -58.8183,-74.7143 -1.5688,-0.16989 -3.1435,-0.28089 -4.72111,-0.3328 z"
       id="path4202"
       inkscape:connector-curvature="0"
       sodipodi:nodetypes="cccscc" />
    <ellipse
       ry="20.950024"
       rx="17.962675"
       cy="617.67664"
       cx="168.63721"
       id="ellipse4204"
       style="opacity:1;fill:#006680;fill-opacity:1;stroke:#000000;stroke-width:10;stroke-linecap:round;stroke-linejoin:round;stroke-miterlimit:4;stroke-dasharray:none;stroke-dashoffset:0;stroke-opacity:1"
       transform="matrix(0.99415585,0.10795439,-0.10802148,0.99414856,0,0)" />
    <path
       style="opacity:1;fill:#ffffff;fill-opacity:1;stroke:#000000;stroke-width:10;stroke-linecap:round;stroke-linejoin:round;stroke-miterlimit:4;stroke-dasharray:none;stroke-dashoffset:0;stroke-opacity:1"
       d="m 235.38601,578.8731 c -35.08265,-1.16448 -65.38483,23.65493 -69.40047,60.61203 -4.22604,38.88994 19.18605,69.26716 55.89654,73.25391 36.71034,3.98637 72.81738,-19.92707 77.04334,-58.81683 4.22603,-38.88993 -22.10782,-70.72753 -58.8183,-74.7143 -1.56878,-0.17056 -3.14347,-0.28223 -4.72111,-0.33481 z"
       id="ellipse4206"
       inkscape:connector-curvature="0"
       sodipodi:nodetypes="cscscc" />
    <ellipse
       style="opacity:1;fill:#006680;fill-opacity:1;stroke:#000000;stroke-width:10;stroke-linecap:round;stroke-linejoin:round;stroke-miterlimit:4;stroke-dasharray:none;stroke-dashoffset:0;stroke-opacity:1"
       id="ellipse4208"
       cx="300.95343"
       cy="617.82935"
       rx="17.962675"
       ry="20.950024"
       transform="matrix(0.99415585,0.10795439,-0.10802148,0.99414856,0,0)" />
    <path
       style="fill:none;fill-rule:evenodd;stroke:#000000;stroke-width:10;stroke-linecap:round;stroke-linejoin:round;stroke-miterlimit:4;stroke-dasharray:none;stroke-opacity:1"
       d="m 139.53742,723.00995 c 0,0 -9.2913,21.78091 -8.47953,34.36754 0.81176,12.58663 21.95445,13.53903 21.95445,13.53903"
       id="path4210"
       inkscape:connector-curvature="0"
       sodipodi:nodetypes="czc" />
    <path
       style="fill:#301f10;fill-opacity:1;fill-rule:evenodd;stroke:#000000;stroke-width:10;stroke-linecap:round;stroke-linejoin:round;stroke-miterlimit:4;stroke-dasharray:none;stroke-opacity:1"
       d="M 327.6501,508.83943 C 158.002,381.18563 -2.2484574,529.23114 -11.229827,579.51901 c 115.759877,-48.35372 297.964807,-23.29295 319.919267,4.7522 21.95446,28.04516 18.96066,100.57572 18.96066,100.57572 57.87995,-14.50612 45.90479,82.20135 -4.98964,56.0903 -4.98966,56.0904 -5.98758,117.016 -5.98758,117.016 54.95992,-35.204 144.69986,-243.70272 10.97722,-349.1138 z"
       id="path4214"
       inkscape:connector-curvature="0"
       sodipodi:nodetypes="ccscccc" />
    <path
       style="fill:#b3b3b3;fill-rule:evenodd;stroke:#000000;stroke-width:10;stroke-linecap:round;stroke-linejoin:round;stroke-miterlimit:4;stroke-dasharray:none;stroke-opacity:1"
       d="m 253.24141,851.75563 c 177.1134,54.126 177.32104,395.33177 177.32104,395.33177 l -151.85059,-4.1306 c 0,0 27.89093,-143.5399 -12.39596,-290.17767"
       id="path4218"
       inkscape:connector-curvature="0"
       sodipodi:nodetypes="cccc" />
    <path
       style="fill:none;fill-rule:evenodd;stroke:#000000;stroke-width:10;stroke-linecap:round;stroke-linejoin:round;stroke-miterlimit:4;stroke-dasharray:none;stroke-opacity:1"
       d="m 183.44281,808.82338 c 26.42489,-2.2451 59.86202,-1.6639 59.86202,-1.6639"
       id="path4212-3"
       inkscape:connector-curvature="0"
       sodipodi:nodetypes="cc" />
  </g>
</svg>
