<?xml version="1.0" encoding="UTF-8" standalone="no"?>
<!-- Created with Inkscape (http://www.inkscape.org/) -->

<svg
   xmlns:dc="http://purl.org/dc/elements/1.1/"
   xmlns:cc="http://creativecommons.org/ns#"
   xmlns:rdf="http://www.w3.org/1999/02/22-rdf-syntax-ns#"
   xmlns:svg="http://www.w3.org/2000/svg"
   xmlns="http://www.w3.org/2000/svg"
   xmlns:sodipodi="http://sodipodi.sourceforge.net/DTD/sodipodi-0.dtd"
   xmlns:inkscape="http://www.inkscape.org/namespaces/inkscape"
   width="500"
   height="500"
   viewBox="0 0 500 500.00001"
   id="svg2"
   version="1.1"
   inkscape:version="0.91 r13725"
   sodipodi:docname="a.svg">
  <defs
     id="defs4" />
  <sodipodi:namedview
     id="base"
     pagecolor="#ffffff"
     bordercolor="#666666"
     borderopacity="1.0"
     inkscape:pageopacity="0.0"
     inkscape:pageshadow="2"
     inkscape:zoom="0.70710678"
     inkscape:cx="72.275902"
     inkscape:cy="136.72463"
     inkscape:document-units="px"
     inkscape:current-layer="layer1"
     showgrid="false"
     units="px"
     inkscape:window-width="1280"
     inkscape:window-height="971"
     inkscape:window-x="1912"
     inkscape:window-y="-8"
     inkscape:window-maximized="1"
     fit-margin-top="0"
     fit-margin-left="0"
     fit-margin-right="0"
     fit-margin-bottom="0"
     inkscape:snap-global="false" />
  <metadata
     id="metadata7">
    <rdf:RDF>
      <cc:Work
         rdf:about="">
        <dc:format>image/svg+xml</dc:format>
        <dc:type
           rdf:resource="http://purl.org/dc/dcmitype/StillImage" />
        <dc:title />
      </cc:Work>
    </rdf:RDF>
  </metadata>
  <g
     inkscape:label="Layer 1"
     inkscape:groupmode="layer"
     id="layer1"
     transform="translate(48.374149,-642.36218)">
    <path
       style="fill:#236923;fill-opacity:1;fill-rule:evenodd;stroke:#000000;stroke-width:10;stroke-linecap:round;stroke-linejoin:round;stroke-miterlimit:4;stroke-dasharray:none;stroke-opacity:1"
       d="m 52.320928,899.29633 c 6.710985,91.31466 38.923707,141.00057 38.923707,141.00057 l 24.159525,-26.8572 c 0,0 12.07977,21.4858 30.87053,47.0002 20.13296,-26.8573 41.60809,-51.0289 41.60809,-51.0289 18.79075,29.543 68.45203,55.0573 68.45203,55.0573 0,0 17.44856,-34.9143 26.84394,-55.0573 16.10635,21.4858 42.9503,45.6573 42.9503,45.6573 0,0 16.10635,-38.943 17.44855,-59.08591 9.39538,12.08571 34.89711,32.22861 34.89711,32.22861 0,0 18.79075,-33.57146 18.79075,-63.11444"
       id="path4198"
       inkscape:connector-curvature="0"
       sodipodi:nodetypes="ccccccccccc" />
    <path
       style="fill:#5d536c;fill-opacity:1;fill-rule:evenodd;stroke:#000000;stroke-width:10;stroke-linecap:round;stroke-linejoin:round;stroke-miterlimit:4;stroke-dasharray:none;stroke-opacity:1"
       d="M 183.86257,1465.0903 80.768038,1449.8014 C 129.13337,1335.8292 100.43815,1121.5486 190.22644,1056.4582 l 90.36684,5.5597"
       id="path4194"
       inkscape:connector-curvature="0"
       sodipodi:nodetypes="cccc" />
    <path
       style="fill:#5d536c;fill-opacity:1;fill-rule:evenodd;stroke:#000000;stroke-width:10;stroke-linecap:round;stroke-linejoin:miter;stroke-miterlimit:4;stroke-dasharray:none;stroke-opacity:1"
       d="m 169.30668,1160.0962 c -3.81831,138.7512 -22.97932,226.4972 -22.97932,226.4972 0,0 83.35502,28.9755 214.45056,14.37 l -47.09257,-312.5552"
       id="path4190"
       inkscape:connector-curvature="0"
       sodipodi:nodetypes="cccc" />
    <path
       style="fill:#5d536c;fill-rule:evenodd;stroke:#000000;stroke-width:10;stroke-linecap:round;stroke-linejoin:round;stroke-miterlimit:4;stroke-dasharray:none;stroke-opacity:1"
       d="m 295.86653,1157.8057 c 33.09209,95.7027 -1.27277,324.722 -1.27277,324.722 l 129.82277,8.9722 c 0,0 20.36436,-347.9095 -138.73217,-436.4328 l -94.18515,5.7704"
       id="path4188"
       inkscape:connector-curvature="0"
       sodipodi:nodetypes="ccccc" />
    <path
       style="fill:#52c652;fill-opacity:1;fill-rule:evenodd;stroke:#000000;stroke-width:10;stroke-linecap:round;stroke-linejoin:round;stroke-miterlimit:4;stroke-dasharray:none;stroke-opacity:1"
       d="m 288.80563,1036.2682 c 0,0 1.34219,18.8001 -5.32513,29.543 -6.66731,10.7429 -61.43538,37.6001 -61.43538,37.6001 0,0 -32.13804,-28.2001 -34.36047,-36.2573 -2.22245,-8.0572 -2.22245,-34.9143 -2.22245,-34.9143"
       id="path4192"
       inkscape:connector-curvature="0"
       sodipodi:nodetypes="cscsc" />
    <path
       style="opacity:1;fill:#52c652;fill-opacity:1;stroke:#000000;stroke-width:10;stroke-linecap:round;stroke-linejoin:round;stroke-miterlimit:4;stroke-dasharray:none;stroke-dashoffset:0;stroke-opacity:1"
       d="m 231.18821,695.18056 c -98.21927,2.5e-4 -177.841375,79.66265 -177.840596,177.9306 -16.873287,10.15401 -71.983162,6.52589 -79.188986,24.84258 -7.205825,18.31669 86.909836,142.26726 225.600822,148.98146 138.691,6.7143 209.23629,-76.41048 209.2712,-173.82404 7.7e-4,-98.26867 -79.62246,-177.93137 -177.84244,-177.9306 z"
       id="path4158"
       inkscape:connector-curvature="0"
       sodipodi:nodetypes="sczzcs" />
    <ellipse
       style="opacity:1;fill:#ffffff;fill-opacity:1;stroke:#000000;stroke-width:10;stroke-linecap:round;stroke-linejoin:round;stroke-miterlimit:4;stroke-dasharray:none;stroke-dashoffset:0;stroke-opacity:1"
       id="path4160"
       cx="217.21875"
       cy="838.40289"
       rx="65.767914"
       ry="69.828529"
       transform="matrix(0.99564824,0.0931911,-0.09309958,0.9956568,0,0)" />
    <ellipse
       ry="21.485703"
       rx="17.448631"
       cy="838.40289"
       cx="217.21875"
       id="ellipse4162"
       style="opacity:1;fill:#442178;fill-opacity:1;stroke:#000000;stroke-width:10;stroke-linecap:round;stroke-linejoin:round;stroke-miterlimit:4;stroke-dasharray:none;stroke-dashoffset:0;stroke-opacity:1"
       transform="matrix(0.99564824,0.0931911,-0.09309958,0.9956568,0,0)" />
    <ellipse
       ry="69.828529"
       rx="65.767914"
       cy="838.40289"
       cx="360.83441"
       id="ellipse4164"
       style="opacity:1;fill:#ffffff;fill-opacity:1;stroke:#000000;stroke-width:10;stroke-linecap:round;stroke-linejoin:round;stroke-miterlimit:4;stroke-dasharray:none;stroke-dashoffset:0;stroke-opacity:1"
       transform="matrix(0.99564824,0.0931911,-0.09309958,0.9956568,0,0)" />
    <ellipse
       style="opacity:1;fill:#442178;fill-opacity:1;stroke:#000000;stroke-width:10;stroke-linecap:round;stroke-linejoin:round;stroke-miterlimit:4;stroke-dasharray:none;stroke-dashoffset:0;stroke-opacity:1"
       id="ellipse4166"
       cx="360.83441"
       cy="838.40289"
       rx="17.448631"
       ry="21.485703"
       transform="matrix(0.99564824,0.0931911,-0.09309958,0.9956568,0,0)" />
    <path
       style="fill:none;fill-rule:evenodd;stroke:#000000;stroke-width:10;stroke-linecap:round;stroke-linejoin:round;stroke-miterlimit:4;stroke-dasharray:none;stroke-opacity:1"
       d="m 211.72197,1020.1538 c 46.31192,2.6858 77.8572,-9.4 77.8572,-9.4"
       id="path4171"
       inkscape:connector-curvature="0"
       sodipodi:nodetypes="cc" />
    <path
       style="fill:#236923;fill-opacity:1;fill-rule:evenodd;stroke:#000000;stroke-width:10;stroke-linecap:round;stroke-linejoin:round;stroke-miterlimit:4;stroke-dasharray:none;stroke-opacity:1"
       d="m 332.52484,799.92454 c 49.66127,47.00017 34.89712,104.74323 34.89712,104.74323 l 21.47514,-5.37144 c 4.0266,38.94298 5.36878,75.20032 5.36878,75.20032 0,0 32.21273,-67.14314 10.73759,-158.45776"
       id="path4175"
       inkscape:connector-curvature="0"
       sodipodi:nodetypes="ccccc" />
    <path
       style="fill:#808080;fill-opacity:1;fill-rule:evenodd;stroke:#000000;stroke-width:10;stroke-linecap:round;stroke-linejoin:round;stroke-miterlimit:4;stroke-dasharray:none;stroke-opacity:1"
       d="m 115.08898,755.6101 c -49.661257,34.91442 -59.056638,87.28604 -59.056638,87.28604 0,0 1.342193,-56.40022 37.581507,-87.28604"
       id="path4179"
       inkscape:connector-curvature="0"
       sodipodi:nodetypes="ccc" />
    <path
       style="fill:#5d536c;fill-rule:evenodd;stroke:#000000;stroke-width:10;stroke-linecap:round;stroke-linejoin:round;stroke-miterlimit:4;stroke-dasharray:none;stroke-opacity:1"
       d="m 241.86855,689.85181 c -118.84279,-4.13316 -154.103555,69.3052 -154.103555,69.3052 129.911475,-30.65178 229.257715,-0.20893 316.755565,46.82189 0,0 -43.80922,-111.99393 -162.65201,-116.12709 z"
       id="path4183"
       inkscape:connector-curvature="0"
       sodipodi:nodetypes="zccz" />
    <path
       style="fill:#e6e6e6;fill-rule:evenodd;stroke:#000000;stroke-width:10.00000095;stroke-linecap:round;stroke-linejoin:round;stroke-miterlimit:4;stroke-dasharray:none;stroke-opacity:1"
       d="m 63.146723,795.89595 c 185.254017,-51.86151 334.811457,37.60014 349.305457,52.37162 14.494,14.77148 11.3159,-32.22869 -4.6275,-47.00017 -15.9434,-14.77149 -147.42722,-95.25124 -324.274628,-47.00017 -14.179021,3.86861 -36.642984,46.17498 -20.403329,41.62872 z"
       id="path4173"
       inkscape:connector-curvature="0"
       sodipodi:nodetypes="sssss" />
  </g>
</svg>
