<?xml version="1.0" encoding="UTF-8" standalone="no"?>
<!-- Created with Inkscape (http://www.inkscape.org/) -->

<svg
   xmlns:dc="http://purl.org/dc/elements/1.1/"
   xmlns:cc="http://creativecommons.org/ns#"
   xmlns:rdf="http://www.w3.org/1999/02/22-rdf-syntax-ns#"
   xmlns:svg="http://www.w3.org/2000/svg"
   xmlns="http://www.w3.org/2000/svg"
   xmlns:sodipodi="http://sodipodi.sourceforge.net/DTD/sodipodi-0.dtd"
   xmlns:inkscape="http://www.inkscape.org/namespaces/inkscape"
   width="375"
   height="375"
   viewBox="0 0 375.00001 375.00001"
   id="svg2"
   version="1.1"
   inkscape:version="0.91 r13725"
   sodipodi:docname="icon16.svg"
   inkscape:export-xdpi="30.719999"
   inkscape:export-ydpi="30.719999">
  <defs
     id="defs4" />
  <sodipodi:namedview
     id="base"
     pagecolor="#ffffff"
     bordercolor="#666666"
     borderopacity="1.0"
     inkscape:pageopacity="0.0"
     inkscape:pageshadow="2"
     inkscape:zoom="1"
     inkscape:cx="149.45659"
     inkscape:cy="154.03386"
     inkscape:document-units="px"
     inkscape:current-layer="layer1"
     showgrid="false"
     units="px"
     inkscape:snap-global="false"
     inkscape:window-width="1600"
     inkscape:window-height="847"
     inkscape:window-x="-8"
     inkscape:window-y="-8"
     inkscape:window-maximized="1"
     fit-margin-top="0"
     fit-margin-left="0"
     fit-margin-right="0"
     fit-margin-bottom="0" />
  <metadata
     id="metadata7">
    <rdf:RDF>
      <cc:Work
         rdf:about="">
        <dc:format>image/svg+xml</dc:format>
        <dc:type
           rdf:resource="http://purl.org/dc/dcmitype/StillImage" />
        <dc:title></dc:title>
      </cc:Work>
    </rdf:RDF>
  </metadata>
  <g
     inkscape:label="Layer 1"
     inkscape:groupmode="layer"
     id="layer1"
     transform="translate(-83,-631.36218)">
    <circle
       cy="915.36261"
       cx="369.99985"
       id="circle4201"
       style="opacity:1;fill:#f9f9f9;fill-opacity:1;stroke:#000000;stroke-width:10;stroke-linecap:round;stroke-linejoin:round;stroke-miterlimit:4;stroke-dasharray:none;stroke-dashoffset:0;stroke-opacity:1"
       r="68" />
    <circle
       style="opacity:1;fill:#f9f9f9;fill-opacity:1;stroke:#000000;stroke-width:10;stroke-linecap:round;stroke-linejoin:round;stroke-miterlimit:4;stroke-dasharray:none;stroke-dashoffset:0;stroke-opacity:1"
       id="path4199"
       cx="138.99985"
       cy="934.36261"
       r="68" />
    <path
       style="fill:#cceeff;fill-opacity:1;fill-rule:evenodd;stroke:#000000;stroke-width:10;stroke-linecap:round;stroke-linejoin:round;stroke-miterlimit:4;stroke-dasharray:none;stroke-opacity:1"
       d="m 186.99985,952.36256 c -56,18 -118.937955,82.60074 -48,101.99994 70.93795,19.3992 141,-45.8578 141,-86.99994 3.51463,43.87314 111,104.99994 155,65.99994 44,-38.99996 -7,-81.99994 -59,-90.99994"
       id="path4197"
       inkscape:connector-curvature="0"
       sodipodi:nodetypes="czczc" />
    <path
       style="fill:#cceeff;fill-opacity:1;fill-rule:evenodd;stroke:#000000;stroke-width:10;stroke-linecap:round;stroke-linejoin:round;stroke-miterlimit:4;stroke-dasharray:none;stroke-opacity:1"
       d="m 170.99985,751.36256 c -53,-38 -102.536661,-36.54839 -101.000005,-45 1.536656,-8.45161 47.000005,-37 124.000005,-26 15,-33 41,-67 52,-67 11,0 44,25 68,52 53,-17 122,-7 129,2 7,9 -45,24 -81,60"
       id="path4189"
       inkscape:connector-curvature="0"
       sodipodi:nodetypes="czczczc" />
    <path
       style="fill:#fff2f2;fill-opacity:1;fill-rule:evenodd;stroke:#000000;stroke-width:10;stroke-linecap:round;stroke-linejoin:round;stroke-miterlimit:4;stroke-dasharray:none;stroke-opacity:1"
       d="M 164.95658,712.36082 C 88.769038,652.18652 59.581765,519.62087 125.23768,498.52458 190.89359,477.42829 235.05452,600.06735 226.1809,683.35263"
       id="path4191"
       inkscape:connector-curvature="0"
       sodipodi:nodetypes="czc" />
    <path
       sodipodi:nodetypes="czc"
       inkscape:connector-curvature="0"
       id="path4195"
       d="m 343.15751,700.34785 c 67.81756,-69.47133 79.71659,-204.68953 11.89306,-217.16833 -67.82353,-12.4788 -95.84833,114.8206 -76.33914,196.27347"
       style="fill:#fff2f2;fill-opacity:1;fill-rule:evenodd;stroke:#000000;stroke-width:10;stroke-linecap:round;stroke-linejoin:round;stroke-miterlimit:4;stroke-dasharray:none;stroke-opacity:1" />
    <circle
       style="opacity:1;fill:#fff2f2;fill-opacity:1;stroke:#000000;stroke-width:10;stroke-linecap:round;stroke-linejoin:round;stroke-miterlimit:4;stroke-dasharray:none;stroke-dashoffset:0;stroke-opacity:1"
       id="path4149"
       cx="270.49985"
       cy="818.86261"
       r="157.5" />
    <ellipse
       ry="69"
       rx="64"
       cy="820.76642"
       cx="259.56198"
       id="ellipse4167"
       style="opacity:1;fill:#ffffff;fill-opacity:1;stroke:#000000;stroke-width:10;stroke-linecap:round;stroke-linejoin:round;stroke-miterlimit:4;stroke-dasharray:none;stroke-dashoffset:0;stroke-opacity:1"
       transform="matrix(0.99430217,-0.10659833,0.10659833,0.99430217,0,0)" />
    <ellipse
       style="opacity:1;fill:#cceeff;fill-opacity:1;stroke:#000000;stroke-width:10;stroke-linecap:round;stroke-linejoin:round;stroke-miterlimit:4;stroke-dasharray:none;stroke-dashoffset:0;stroke-opacity:1"
       id="ellipse4169"
       cx="259.56198"
       cy="820.76642"
       rx="17"
       ry="21"
       transform="matrix(0.99430217,-0.10659833,0.10659833,0.99430217,0,0)" />
    <path
       style="fill:#333333;fill-rule:evenodd;stroke:none;stroke-width:10;stroke-linecap:round;stroke-linejoin:round;stroke-miterlimit:4;stroke-dasharray:none;stroke-opacity:1"
       d="m 266.87143,924.6546 c -41.54326,-1.63034 -56.12331,-11.62644 -65.3738,0.51557 -9.2505,12.14201 14.13768,29.5487 61.10418,32.22233 46.9665,2.67363 71.73833,-13.95033 63.9735,-26.78417 -7.76484,-12.83383 -18.16063,-4.3234 -59.70388,-5.95373 z"
       id="path4175"
       inkscape:connector-curvature="0"
       sodipodi:nodetypes="zzzzz" />
    <ellipse
       style="opacity:1;fill:#ffffff;fill-opacity:1;stroke:#000000;stroke-width:10;stroke-linecap:round;stroke-linejoin:round;stroke-miterlimit:4;stroke-dasharray:none;stroke-dashoffset:0;stroke-opacity:1"
       id="ellipse4177"
       cx="110.56196"
       cy="820.76642"
       rx="64"
       ry="69"
       transform="matrix(0.99430217,-0.10659833,0.10659833,0.99430217,0,0)" />
    <ellipse
       ry="21"
       rx="17"
       cy="820.76642"
       cx="110.56196"
       id="ellipse4179"
       style="opacity:1;fill:#cceeff;fill-opacity:1;stroke:#000000;stroke-width:10;stroke-linecap:round;stroke-linejoin:round;stroke-miterlimit:4;stroke-dasharray:none;stroke-dashoffset:0;stroke-opacity:1"
       transform="matrix(0.99430217,-0.10659833,0.10659833,0.99430217,0,0)" />
    <path
       style="fill:#ffd5d5;fill-rule:evenodd;stroke:none;stroke-width:10;stroke-linecap:round;stroke-linejoin:round;stroke-miterlimit:4;stroke-dasharray:none;stroke-opacity:1"
       d="m 217.86118,933.61061 c -6.92614,-0.0494 -12.86531,0.41428 -17.47461,0.97265 4.51689,10.26121 26.56372,20.77911 62.21484,22.8086 11.14627,0.63451 21.0253,0.17206 29.53321,-1.0586 -26.6676,-18.24406 -54.43481,-22.58105 -74.27344,-22.72265 z"
       id="path4211"
       inkscape:connector-curvature="0" />
    <path
       sodipodi:nodetypes="zzzzz"
       inkscape:connector-curvature="0"
       id="path4148"
       d="m 266.87143,924.6546 c -41.54326,-1.63034 -56.12331,-11.62644 -65.3738,0.51557 -9.2505,12.14201 14.13768,29.5487 61.10418,32.22233 46.9665,2.67363 71.73833,-13.95033 63.9735,-26.78417 -7.76484,-12.83383 -18.16063,-4.3234 -59.70388,-5.95373 z"
       style="fill:none;fill-rule:evenodd;stroke:#000000;stroke-width:10;stroke-linecap:round;stroke-linejoin:round;stroke-miterlimit:4;stroke-dasharray:none;stroke-opacity:1" />
  </g>
</svg>
